<svg width="200" height="200" viewBox="0 0 200 200" xmlns="http://www.w3.org/2000/svg">
  <!-- Atmospheric glow -->
  <circle cx="100" cy="100" r="88" fill="url(#atmosphereGlow)" />
  
  <!-- Planet body (ocean) -->
  <circle cx="100" cy="100" r="85" fill="url(#oceanGradient)" />
  
  <!-- Ocean texture/pattern -->
  <circle cx="100" cy="100" r="85" fill="url(#oceanPattern)" opacity="0.3" />
  
  <!-- Continents with more detailed shapes -->
  <g>
    <!-- North America -->
    <path d="M70,40 Q75,35 85,38 Q95,42 90,50 Q85,60 80,65 Q75,70 65,72 Q60,65 55,60 Q50,50 55,45 Q65,42 70,40 Z" fill="url(#landGradient)" />
    
    <!-- South America -->
    <path d="M80,75 Q85,70 90,75 Q95,85 92,95 Q88,105 83,110 Q78,112 75,105 Q72,95 75,85 Q78,75 80,75 Z" fill="url(#landGradient)" />
    
    <!-- Europe and Africa -->
    <path d="M110,40 Q120,38 125,45 Q130,55 128,65 Q125,75 120,85 Q115,95 110,105 Q105,110 100,105 Q95,95 98,85 Q102,75 105,65 Q108,55 110,45 Q112,40 110,40 Z" fill="url(#landGradient)" />
    
    <!-- Asia -->
    <path d="M130,45 Q140,40 150,50 Q155,60 150,70 Q145,80 140,85 Q135,90 130,85 Q125,80 128,70 Q132,60 130,45 Z" fill="url(#landGradient)" />
    
    <!-- Australia -->
    <path d="M145,105 Q155,100 160,110 Q162,120 155,125 Q145,128 140,120 Q138,110 145,105 Z" fill="url(#landGradient)" />
    
    <!-- Antarctica -->
    <path d="M85,140 Q100,135 115,140 Q130,145 120,155 Q100,160 80,155 Q75,145 85,140 Z" fill="url(#iceGradient)" />
  </g>
  
  <!-- Ice caps at north and south poles -->
  <path d="M85,30 Q100,25 115,30 Q120,35 115,40 Q100,45 85,40 Q80,35 85,30 Z" fill="url(#iceGradient)" />
  
  <!-- Cloud patterns with varying opacity and detail -->
  <g>
    <!-- Major weather systems -->
    <path d="M40,70 Q55,65 70,70 Q80,80 70,85 Q55,90 40,85 Q35,75 40,70 Z" fill="url(#cloudGradient)" opacity="0.8" />
    <path d="M115,55 Q130,50 145,60 Q150,70 140,75 Q125,80 110,70 Q110,60 115,55 Z" fill="url(#cloudGradient)" opacity="0.7" />
    <path d="M80,120 Q100,115 120,125 Q125,135 115,140 Q95,145 75,135 Q75,125 80,120 Z" fill="url(#cloudGradient)" opacity="0.75" />
    
    <!-- Smaller cloud formations -->
    <path d="M60,100 Q70,95 80,100 Q85,105 75,110 Q65,112 60,105 Q58,102 60,100 Z" fill="url(#cloudGradient)" opacity="0.6" />
    <path d="M135,95 Q145,90 150,95 Q152,100 148,105 Q140,107 135,100 Q133,97 135,95 Z" fill="url(#cloudGradient)" opacity="0.6" />
  </g>
  
  <!-- Subtle atmospheric highlights at the edge -->
  <circle cx="100" cy="100" r="85" fill="none" stroke="url(#edgeHighlight)" stroke-width="2" opacity="0.4" />
  
  <!-- Definitions for gradients -->
  <defs>
    <radialGradient id="oceanGradient" cx="50%" cy="50%" r="85%" fx="35%" fy="35%">
      <stop offset="0%" stop-color="#88c9ea" />
      <stop offset="50%" stop-color="#5a97c4" />
      <stop offset="100%" stop-color="#366ca2" />
    </radialGradient>
    
    <radialGradient id="oceanPattern" cx="50%" cy="50%" r="100%">
      <stop offset="10%" stop-color="#88c9ea00" />
      <stop offset="90%" stop-color="#5a97c430" />
    </radialGradient>
    
    <radialGradient id="landGradient" cx="50%" cy="50%" r="70%">
      <stop offset="0%" stop-color="#76bd7b" />
      <stop offset="70%" stop-color="#57a35a" />
      <stop offset="100%" stop-color="#3d8940" />
    </radialGradient>
    
    <linearGradient id="iceGradient" x1="0%" y1="0%" x2="100%" y2="100%">
      <stop offset="0%" stop-color="#ffffff" />
      <stop offset="100%" stop-color="#e8f0f0" />
    </linearGradient>
    
    <radialGradient id="cloudGradient" cx="50%" cy="50%" r="70%">
      <stop offset="0%" stop-color="#ffffff" />
      <stop offset="100%" stop-color="#f0f0f0" />
    </radialGradient>
    
    <radialGradient id="atmosphereGlow" cx="50%" cy="50%" r="100%">
      <stop offset="85%" stop-color="#a0d8ff50" />
      <stop offset="100%" stop-color="#a0d8ff00" />
    </radialGradient>
    
    <linearGradient id="edgeHighlight" x1="0%" y1="0%" x2="100%" y2="100%">
      <stop offset="0%" stop-color="#ffffff80" />
      <stop offset="50%" stop-color="#ffffff20" />
      <stop offset="100%" stop-color="#ffffff80" />
    </linearGradient>
  </defs>
</svg>