<svg xmlns="http://www.w3.org/2000/svg" xmlns:xlink="http://www.w3.org/1999/xlink" fill="none" version="1.1" width="996" height="1664" viewBox="0 0 996 1664"><defs><clipPath id="master_svg0_135_18532"><rect x="0" y="0" width="996" height="1664" rx="0"/></clipPath></defs><g clip-path="url(#master_svg0_135_18532)"><g><path d="M1620.88701553125,2018.71533203125L1620.88701553125,2019.85962203125L1620.05126953125,2019.85962203125Q1620.75506253125,2019.55152003125,1620.88701553125,2018.71533203125Z" fill="#F6F5F3" fill-opacity="1" style="mix-blend-mode:passthrough"/></g><g transform="matrix(0,1,-1,0,83.87109375,-83.275390625)"><line x1="83.5732421875" y1="-1.2021484375" x2="1081.27880859375" y2="-1.2021484375" fill-opacity="0" stroke-opacity="1" stroke="#FFFFFF" fill="none" stroke-width="3"/></g><g transform="matrix(0,0.9999932646751404,-0.9999932646751404,0,358.84863080637297,-358.2505147315096)"><line x1="358.55078125" y1="-1.2021484375" x2="1538.54296875" y2="-1.2021484375" fill-opacity="0" stroke-opacity="1" stroke="#FFFFFF" fill="none" stroke-width="3"/></g><g transform="matrix(0,1,-1,0,596.37353515625,-595.77783203125)"><line x1="596.07568359375" y1="-1.2021484375" x2="1881.6622314453125" y2="-1.2021484375" fill-opacity="0" stroke-opacity="1" stroke="#FFFFFF" fill="none" stroke-width="3"/></g><g transform="matrix(0.00560216698795557,1,-1,0.0056021674536168575,848.8469465481817,-853.0334068955794)"><line x1="853.32958984375" y1="-1.2021484375" x2="1649.0341796875" y2="-1.2021484375" fill-opacity="0" stroke-opacity="1" stroke="#FFFFFF" fill="none" stroke-width="3"/></g><g><path d="M-0.7474329625,1076.13012109375Q11.7666234375,1057.82212109375,24.1047234375,1045.05912109375C102.3995234375,964.08212109375,205.5255234375,911.60112109375,316.7445234375,893.42512109375Q363.3915234375,885.81112109375,409.3785234375,881.87312109375C423.4325234375,880.66212109375,443.2695234375,878.28612109375,450.2195234375,864.51112109375C451.1185234375,862.7211210937501,449.9935234375,860.58012109375,448.0205234375,860.33012109375C436.5625234375,858.83412109375,427.7425234375,857.49212109375,418.0005234375,849.7461210937499C390.2005234375,827.65312109375,389.3425234375,787.03272109375,417.5385234375,764.80802109375C447.2065234375,741.41712109375,489.9835234375,748.45862109375,506.6535234375,783.55602109375Q517.5185234375,806.4191210937499,504.4765234375,827.67512109375Q503.3775234375,829.48012109375,504.1685234375,833.0001210937501Q504.7185234375,835.46512109375,506.8735234375,837.44512109375C516.6385234375,846.40112109375,529.8565234375,845.93912109375,541.5785234375,842.22012109375Q576.1955234375,831.17412109375,604.8525234375,828.53312109375Q619.5665234375,827.1691210937499,667.3795234375,824.61712109375C781.6115234375,818.49912109375,900.7035234375,789.84932109375,984.6285234375,709.46632109375Q994.8995234375,699.63026109375,996.2635234375,698.39800839375C996.3575234375,698.33031829375,996.4845234375,698.33313869375,996.5725234375,698.40492509375C996.6575234375,698.47362209375,996.6755234375,698.59490109375,996.6155234375,698.68401209375Q993.1845234375,704.03119109375,991.3365234375,706.29767109375Q934.3965234375,776.00842109375,864.7665234375,820.04012109375Q799.4915234375,861.32012109375,723.0435234375,881.23512109375Q687.4365234375,890.52112109375,659.5935234375,895.86812109375C649.7845234375,897.7601210937501,637.6005234375,900.86312109375,627.9455234375,903.4811210937501C599.4205234375,911.20512109375,578.0875234375,930.74512109375,565.1335234375,957.59112109375C551.6515234375,985.4711210937501,546.9675234375,1021.20612109375,560.9985234375,1050.01012109375Q566.6065234375,1061.54112109375,583.2115234375,1088.23212109375C614.1115234375,1137.89712109375,632.3005234375,1187.47312109375,622.6675234375,1246.18212109375C614.5955234375,1295.36212109375,592.8445234375,1344.74112109375,568.3665234375,1393.81112109375Q557.3045234375,1415.97012109375,523.8305234375,1481.17012109375Q507.9295234375,1512.17412109375,490.2255234375,1556.35912109375Q470.1675234375,1606.4421210937498,459.2805234375,1664.4021210937499C459.2355234375,1664.68612109375,458.9715234375,1664.88212109375,458.6875234375,1664.84212109375L458.6655234375,1664.84212109375C458.3815234375,1664.8081210937498,458.1775234375,1664.55412109375,458.2035234375,1664.27012109375Q460.3805234375,1634.98212109375,461.3265234375,1626.62012109375C470.4975234375,1546.47912109375,486.6185234375,1468.9131210937499,509.8875234375,1392.49112109375C524.3805234375,1344.91712109375,539.7315234375,1296.37412109375,546.1095234375,1250.42912109375C552.2015234375,1206.48512109375,550.2665234375,1149.97712109375,509.2495234375,1122.56012109375Q491.3025234375,1110.54512109375,467.9905234375,1113.45012109375C448.5485234375,1115.84812109375,432.8675234375,1125.92612109375,422.2665234375,1141.46212109375C403.7485234375,1168.57112109375,403.7705234375,1202.4801210937499,409.4885234375,1235.09112109375Q418.4395234375,1285.96612109375,438.9595234375,1341.52812109375Q447.4925234375,1364.5671210937498,463.1075234375,1404.26312109375C463.1845234375,1404.46412109375,463.1045234375,1404.69112109375,462.9195234375,1404.80012109375C462.7345234375,1404.90912109375,462.4985234375,1404.86812109375,462.3605234375,1404.70312109375Q429.1065234375,1365.33712109375,399.9655234375,1324.4301210937501Q373.0025234375,1286.56012109375,354.1545234375,1244.24512109375C327.7625234375,1184.96512109375,325.9375234375,1121.87712109375,357.4535234375,1063.91712109375C382.4155234375,1017.99312109375,418.2855234375,980.52012109375,460.0945234375,949.86712109375Q481.4275234375,934.20012109375,506.0385234375,917.14612109375Q509.6225234375,914.66012109375,513.4715234375,910.43512109375C513.5825234375,910.31612109375,513.5975234375,910.13812109375,513.5085234375,910.00212109375C513.4205234375,909.86712109375,513.2505234375,909.80912109375,513.0975234375,909.86312109375Q510.8985234375,910.63312109375,497.5265234375,917.85012109375C469.5955234375,932.87912109375,434.4065234375,938.49112109375,402.2525234375,942.32012109375Q382.2175234375,944.71812109375,368.2735234375,945.75212109375Q313.0715234375,949.9331210937501,268.8875234375,955.5001210937501C197.9815234375,964.45612109375,127.1425234375,986.37312109375,66.7272234375,1024.37512109375Q33.8696234375,1045.03712109375,-0.3076125625,1076.50412109375C-0.4114435625,1076.62312109375,-0.5914525625,1076.63612109375,-0.7117265625,1076.53412109375C-0.8320009625,1076.43212109375,-0.8479077625,1076.25212109375,-0.7474329625,1076.13012109375Z" fill="#FFFFFF" fill-opacity="1" style="mix-blend-mode:passthrough"/></g></g></svg>